<?xml version="1.0" encoding="utf-8"?>
<!-- Generator: Adobe Illustrator 19.1.0, SVG Export Plug-In . SVG Version: 6.00 Build 0)  -->
<svg version="1.1" id="Calque_1" xmlns="http://www.w3.org/2000/svg" xmlns:xlink="http://www.w3.org/1999/xlink" x="0px" y="0px"
	 viewBox="-395 273.3 50 50" style="enable-background:new -395 273.3 50 50;" xml:space="preserve">
<style type="text/css">
	.st0{fill:#777D88;}
	.st1{fill:#979AA2;}
	.st2{fill:#221F1C;}
	.st3{fill:#3A3736;}
	.st4{fill:#EDE97C;}
	.st5{fill:#302D29;}
	.st6{fill:#FFFFFF;}
	.st7{fill:#1D1D1B;}
	.st8{fill:#455666;}
	.st9{fill:#576A7D;}
</style>
<g id="mesange_1_">
	<path class="st0" d="M-376.4,307.1c0,0-2.7,0.5-3.6,0.8c-1,0.3-1.5,0.6-1.8,0.9c-0.3,0.3-0.5,0.5-0.6,1.2c-0.1,0.7-0.1,0.8-0.2,1.6
		c0,0.8-0.3,2.1,0.9,2.6c0.3,0.1,0.6,0,0.3-0.3c-0.3-0.4-0.8-1.7-0.1-2.5s1.4-1.1,1.4-1.1l1.3-1.6l4.4-0.9l-0.4-0.6H-376.4z"/>
	<path class="st1" d="M-374.8,307.4c0,0-2.5,0.5-3.1,0.5c-0.6,0-1.7,0.3-2,0.7c-0.4,0.4-0.6,0.4-0.8,0.8c-0.2,0.4-0.9,1.2-0.6,2.2
		c-0.1,0.5-0.7,2,0.4,2.4c0-0.3-0.5-0.6-0.1-1.3c0.1,0.3,0.5,0.7,0.9,0.4c-0.2-0.4,0.2-1.5,0.4-1.9c0.3-0.1,0.6-1.8,1.1-2
		s0.7-0.5,1.2-0.5c0.5,0,2.9-0.4,3.5-0.6S-373.9,307.2-374.8,307.4z"/>
	<path class="st2" d="M-382.5,285.8c0,0,0.3-3.3,0-4.2s0.4-2.2,1.1-1.9s1.3,3.1,1.1,4.8c0.5-0.5,1.2-1.7,1.5-3.6
		c0.3-1.9,0.9-3.1,2-2.8s0.7,3.8-0.3,5.8c0.5-0.4,1.4-1.1,1.9-2.5c0.6-1.4,1.6-2.3,2.3-1.7c0.6,0.6,1.1,2.3-1.3,5
		c0.9-0.4,2.1-1.1,3.3-2.2c1.2-1.1,1.8-0.5,2,0s-0.2,2.7-2.5,3.3c1.7-0.2,4.5-1.5,5.3-0.8s-4.6,5.8-4.6,5.8l-4.6,0.5L-382.5,285.8z"
		/>
	<path class="st3" d="M-353.1,283.3c1.6-0.4,5-3.2,5.4-4.1c-2.8,1.8-6.7,2.7-6.7,2.7s0.4-0.6,0.8-0.7c3.1-1.9,4.9-4.1,4.9-4.9
		c-4,3.3-7.3,4.5-7.3,4.5s0.4-0.5,0.8-0.9c2.7-2.2,4.2-5.2,4.2-5.9c-4.1,4.9-6.3,6.1-6.9,6.3c4.5-4.2,3.6-7.2,3.6-7.2
		s-0.6,1.1-0.8,1.8c-1.6,3.5-4.2,5.7-5.3,6.6c1.2-1.1,2.5-4.6,2.5-4.6s-0.8,0.2-1.3,1.8s-2.3,3.5-2.3,3.5s-0.9,0.5-1.3,0.8
		c-0.4,0.3-4.7,3-5.4,3.3c-0.8,0.3-1.6,0.9-2.2,1.1c-0.5,0.2-2,1.3-3,2c-1.1,0.7-1.5,0.9-1.5,0.9c-0.1,0.1-0.2,0.2-0.3,0.3
		c0,0-0.1,0.1-0.1,0.1c-0.7,0.5-0.2,1.1,1.4,1.1c0.4,0,0.8,0.1,1.2,0.3l1,1.4c-0.1,0.1-0.3,0.2-0.5,0.3c-0.4,0.1-0.7,0.2-0.9,0.4
		c-0.7,0.5-0.5,1.3,0.1,1.3c0.4,0,0.7,0.1,1.1,0.2c0.1,0,0.1,0,0.2,0c0.5,0.1,0.9,0.3,1.3,0.5c0.1,0.3,0.3,1.1,0.5,2
		c0.1,0.5,0.2,1.1,0.3,1.6c0-0.1,0-0.2,0.1-0.3c0.4,1.4,0.9,2.7,1.3,3c0.8,0.6,1.5-0.3,1.7-0.8c1.9,0.7,1.8-0.2,2.2-0.8
		c1.9-0.6,1.4-1.7,1.3-2.2c2.3-0.3,2.2-1.7,1.9-2.1c2.9-0.4,2.8-2.7,2.6-2.9c3.5-0.8,2.9-1.9,2.5-2.2c2,0.1,2.7-0.9,2.7-1.4
		c0.3-0.1,0.4-0.2,0.4-0.4c0.4,0,0.9-0.8,0.8-1.1c0.3-0.2,0-0.7-0.7-1c0.5-0.2,2.7-2.1,2.8-2.3c0.2-0.2-0.7-0.5-1.8-0.3
		c0.5-0.1,3.9-2.3,3.8-2.5C-348.4,282.4-351.6,283.2-353.1,283.3z"/>
	<path class="st4" d="M-383,296.5c-0.3-0.6-0.8-1.4-0.8-1.4c0.3,1.5,0.9,3.2,1.9,4.8C-381.7,299-382.8,297.2-383,296.5z"/>
	<path class="st1" d="M-360.1,321.4c-0.5-1.6-5.1-9-5.8-10.3s-3.5-7.2-3.5-8.6c0,0,0-0.1,0-0.1c0.1,0.5,0.1,1,0,1.5c0,0,0,0.1,0,0.1
		c0.2,2.1,0.7,2,1.4,2.8c0.7,0.8-0.6,0.8-0.6,0.8s1.3,2.9,1.9,4.3c0.6,1.5-0.8,0.4-1.1,0.2c-0.3,0.2-0.5,0.2-0.8,0.1
		c0,0,4.7,7.4,5.4,10c0.2,0.8,0.9,1.3,1.4,0.5c0.3,0.4,0.8,0.6,1,0C-360.4,323-359.6,323-360.1,321.4z"/>
	<path class="st5" d="M-366.8,311.9c-0.6-1.5-1.9-4.3-1.9-4.3s1.3,0,0.6-0.8c-0.7-0.8-1.1-0.7-1.4-2.8c0,0,0-0.1,0-0.1
		c-0.1,1.2-0.6,2.2-1.4,2.8c-0.2,0.1-0.4,0.2-0.6,0.3c0,0,0,0-0.1,0c-0.4,0.2-0.9,0.3-1.5,0.2c0,0-0.1,0-0.1,0
		c-1.8-0.3-3.4-2.2-4.5-3.5c-0.2-0.2-0.4-0.5-0.6-0.8c-1.1-1.7-2.7-4.7-3.3-6.3c-0.8-1.9,0.7-2.3,0.7-2.3s0.9-0.2,1.8-0.8
		c0.2-0.1,0.4-0.3,0.6-0.5c0.5-0.6,1-1.4,1-2.3c0-0.2,0-0.4,0-0.6c-0.3-1.4-0.6-1.9-0.6-1.9c0-0.1-0.1-0.1-0.1-0.2
		c-0.4-0.6-1.8-1.5-1.8-1.5l0,0c-0.8-0.6-2-1.1-3.4-1.1c-2.4,0-4.4,1.3-4.4,3c0,0.8,0.5,1.5,1.2,2l0,0c0,0,0,0,0,0
		c0.1,0.1,0.1,0.1,0.2,0.1c0.6,0.4,2,1.7,2.3,4.2c0,0,0.1,0.1,0.1,0.1c0,0.1,0,0.2,0.1,0.3c0,0,0.5,0.7,0.8,1.4
		c0.3,0.6,1.3,2.5,1.1,3.4c0.3,0.5,0.6,1,1,1.5c0.4,0.5,0.8,1.1,1.2,1.5c0,0,0,0,0,0s2.2,3.6,3.1,4s1.3,0.5,1.9,0.4
		c0.6,0,0.9,0.3,1,0.6s0.5,1.1,1.6,0.2c0.3,0.3,1.1,2.1,1.8,2.4c0,0,0.3,0.2,0.5,0.1c0.3,0.5,0.7,1.3,1.2,1.6
		c0.2,0.1,0.5,0.1,0.8-0.1C-367.7,312.3-366.3,313.3-366.8,311.9z"/>
	<path class="st4" d="M-369.5,302.4c0-0.3-0.1-0.7-0.2-1c0,0,0,0,0,0c-0.1-0.5-0.1-1-0.2-1.5c-0.2-1.4-0.5-2.6-0.9-3.6
		c-0.4-0.2-0.9-0.4-1.5-0.6c-0.3-0.1-0.7-0.1-1.1-0.2c-0.5,0-0.7-0.8-0.1-1.3c0.2-0.2,0.5-0.3,0.9-0.4c0.2-0.1,0.4-0.2,0.5-0.3
		c-0.3-0.5-0.6-1-0.9-1.4c0,0,0-0.1-0.1-0.1c-0.4-0.2-0.8-0.3-1.2-0.3c-1.6,0-2.1-0.6-1.4-1.1c0.1-0.1,0.3-0.2,0.4-0.3
		c-0.5-0.3-0.9-0.5-1.3-0.6c-0.9-0.3-1.3-1.1-1.7-1.7c0,0,0.4,0.6,0.6,1.9c0,0.2,0.1,0.4,0,0.6c0,0.9-0.4,1.7-1,2.3
		c-0.2,0.2-0.4,0.4-0.6,0.5c-0.9,0.6-1.8,0.8-1.8,0.8s-1.5,0.4-0.7,2.3c0.6,1.6,2.2,4.6,3.3,6.3c0.2,0.3,0.4,0.6,0.6,0.8
		c1.1,1.3,2.7,3.2,4.5,3.5c0.6,0.1,1.1,0,1.6-0.2c0,0,0,0,0.1,0l0,0c0.2-0.1,0.4-0.2,0.6-0.3c0.8-0.6,1.3-1.6,1.4-2.8
		C-369.4,303.4-369.4,302.9-369.5,302.4z"/>
	<path class="st6" d="M-386.5,288.8c0,0,0,0.6,0.7,1.2c0.8,0.6,1.8,1.8,2.5,1.8c0.7,0,2.3-0.2,2.7-0.7s0.1,0.6-0.1,0.8
		c-0.2,0.2,0.2,0.5,0.7-0.4c0.5-0.9,1-1.3,1.1-1.6c0-0.3,0-1.7-0.9-1.9s0,0.4-0.1,0.5c-0.1,0.2-0.2,0.2-0.8-0.1
		c-0.5-0.3-1.1-0.4-1.7-0.3c-0.6,0.1-3.5,0.6-3.7,0.5C-386.4,288.6-386.6,288.6-386.5,288.8z"/>
	<circle class="st7" cx="-384.9" cy="287.9" r="0.5"/>
	<circle class="st6" cx="-384.9" cy="287.7" r="0.2"/>
	<g>
		<path class="st8" d="M-389.9,289.3c-0.5,0-0.6,0.2-0.6,0.2c0.1,0,0.2,0.1,0.4,0.1c0.8,0,2.5-0.1,3.2,0.4c0.1,0.1,0.3-0.3,0.4-0.6
			c0,0-0.3-0.1-0.6-0.1C-387.4,289.2-389.4,289.3-389.9,289.3z"/>
		<path class="st9" d="M-386.7,289.1c-0.2-0.2-0.4-0.4-0.5-0.7c-0.1-0.2-0.1-0.8-0.4-0.9c0,0-2.7,1.4-2.8,1.5
			c-0.1,0.1-0.4,0.4-0.1,0.5c0,0,0.2-0.2,0.6-0.2c0.5,0,2.5-0.2,2.7-0.1c0.2,0.1,0.6,0.1,0.6,0.1
			C-386.6,289.3-386.6,289.2-386.7,289.1z"/>
	</g>
</g>
</svg>
